/* XPM */
static char * WallTile2(dark)_xpm[] = {
"32 32 13 1",
" 	c #544B58",
".	c #18140E",
"+	c #000000",
"@	c #2E2F2F",
"#	c #748C9B",
"$	c #544B57",
"%	c #18130E",
"&	c #748D9B",
"*	c #544C58",
"=	c #2E3030",
"-	c #544C57",
";	c #18130F",
">	c #010000",
"  .+@#$$$$$$$$%+@#$$$$$$%+@&****",
"@@ +#@@@@@@@@@$+#@@@@@@@$+#@====",
"@@@+ @@@@@@@@@@+#@@@@@@@$+-@====",
"@@@+ @@@@@@@@@@+$@@@@@@@@+-@====",
"@@.+ @@@@@@@@@%+$@@@@@@@%+-@====",
"@@.+ @@@@@@@@@%+$@@@@@@@%+-@====",
"..++.$@@%@%%%%++%$@@%@%%++%-==;=",
"++++++++++++++++++++++++++++++++",
"     $$%+@#$$$$$$$$%+@#$$$--*;+=",
"@@@@@@@$+#@@@@@@@@@$+#@@@@@@=*>&",
"@@@@@@@@+$@@@@@@@@@@+$@@@@@@==>*",
"@@@@@@@%+$@@@@@@@@@%+$@@@@@@=;+*",
"@@@@@@@%+$@@@@@@@@@%+$@@@@@@=;+*",
"@.@..%%++%$@@%@%%%%++%$@@%@%;++;",
"++++++++++++++++++++++++++++>+++",
"  .+@#$$$$$$$$%+@#$$$$$%+@#-****",
"@@ +#@@@@@@@@@$+#@@@@@@$+#@@====",
"@@@+ @@@@@@@@@@+$@@@@@@@+$@@====",
"@@.+ @@@@@@@@@@+$@@@@@@@+$@@====",
"@@.+ @@@@@@@@@%+$@@@@@@%+$@@====",
"@@.+ @@@@@@@@@%+$@@@@@@%+$@@====",
"@@.+ @@@@@@@@@%+$@@@@@@%+$@@====",
"..++.$@@%@%%%%++%$@@%%%++%-@=;;;",
"++++++++++++++++++++++++++++++++",
"     $$%+@#$$$$$$$$%+@#$$$--*;+=",
"@@@@@@@$+#@@@@@@@@@$+#@@@@@@=*>&",
"@@@@@@@@+$@@@@@@@@@@+$@@@@@@==>*",
"@@@@@@@%+$@@@@@@@@@%+$@@@@@@=;+*",
"@@@@@@@%+$@@@@@@@@@%+$@@@@@@=;+*",
"@@@@@@@%+$@@@@@@@@@%+$@@@@@@=;+*",
"@.@..%%++%$@@%@%%%%++%$@@%@%;++;",
"++++++++++++++++++++++++++++>+++"};
