/* XPM */
static char * WallTile1(normal)_xpm[] = {
"32 32 7 1",
" 	c #847E87",
".	c #595652",
"+	c #222034",
"@	c #696A6A",
"#	c #9BADB7",
"$	c #45283C",
"%	c #323C39",
"  .+@#        .+@#      .+@#    ",
"@@ $#@@@@@@@@@ $#@@@@@@@ $#@@@@@",
"@@@$ @@@@@@@@@@$#@@@@@@@ $ @@@@@",
"@@@$ @@@@@@@@@@$ @@@@@@@@$ @@@@@",
"@@.% @@@@@@@@@.% @@@@@@@.% @@@@@",
"@@.% @@@@@@@@@.% @@@@@@@.% @@@@@",
"..%+. @@.@....%+. @@.@..%+. @@.@",
"$$++++++++++$$++++++++++++++++++",
"       .+@#        .+@#      .+@",
"@@@@@@@ $#@@@@@@@@@ $#@@@@@@@ $#",
"@@@@@@@@$ @@@@@@@@@@$ @@@@@@@@$ ",
"@@@@@@@.% @@@@@@@@@.% @@@@@@@.% ",
"@@@@@@@.% @@@@@@@@@.% @@@@@@@.% ",
"@.@....%+. @@.@....%+. @@.@..%+.",
"%$+++$$+++++%$+++$$+++++++$$$+++",
"  .+@#        .+@#     .+@#     ",
"@@ $#@@@@@@@@@ $#@@@@@@ $#@@@@@@",
"@@@$ @@@@@@@@@@$ @@@@@@@$ @@@@@@",
"@@.% @@@@@@@@@@% @@@@@@@% @@@@@@",
"@@.% @@@@@@@@@.% @@@@@@.% @@@@@@",
"@@.% @@@@@@@@@.+ @@@@@@.+ @@@@@@",
"@@.% @@@@@@@@@.% @@@@@@.% @@@@@@",
"..%+. @@.@....%+. @@...%+. @@...",
"$$+++$++++++$$$%++++++++++$%++++",
"       .+@#        .+@#      .+@",
"@@@@@@@ $#@@@@@@@@@ $#@@@@@@@ $#",
"@@@@@@@@$ @@@@@@@@@@$ @@@@@@@@$ ",
"@@@@@@@.% @@@@@@@@@.% @@@@@@@.% ",
"@@@@@@@.% @@@@@@@@@.% @@@@@@@.% ",
"@@@@@@@.% @@@@@@@@@.% @@@@@@@.% ",
"@.@....%+. @@.@....%+. @@.@..%+.",
"%$+++$$+++++%$+++$$$%+++%+++$+++"};
